<svg width="21" height="19" viewBox="0 0 21 19" version="1.1" xmlns="http://www.w3.org/2000/svg" xmlns:xlink="http://www.w3.org/1999/xlink">
<title>Group</title>
<desc>Created using Figma</desc>
<g id="Canvas" transform="translate(-22 395)">
<g id="Group">
<g id="Ellipse">
<use xlink:href="#path0_fill" transform="matrix(0.86332 -0.504656 0.504656 0.86332 20 -391.449)" fill="#997FBC"/>
</g>
<g id="Ellipse">
<use xlink:href="#path1_fill" transform="matrix(0.86332 -0.504656 0.504656 0.86332 32.5889 -386.686)" fill="#EE8EBC"/>
</g>
<g id="Ellipse">
<use xlink:href="#path2_fill" transform="matrix(0.86332 -0.504656 0.504656 0.86332 27.6004 -380.428)" fill="#92DED2"/>
</g>
</g>
</g>
<defs>
<path id="path0_fill" d="M 11 5.5C 11 8.53757 8.53757 11 5.5 11C 2.46243 11 0 8.53757 0 5.5C 0 2.46243 2.46243 0 5.5 0C 8.53757 0 11 2.46243 11 5.5Z"/>
<path id="path1_fill" d="M 8.07053 4.03526C 8.07053 6.26388 6.26388 8.07053 4.03526 8.07053C 1.80665 8.07053 0 6.26388 0 4.03526C 0 1.80665 1.80665 0 4.03526 0C 6.26388 0 8.07053 1.80665 8.07053 4.03526Z"/>
<path id="path2_fill" d="M 5.65013 2.82506C 5.65013 4.3853 4.3853 5.65013 2.82506 5.65013C 1.26482 5.65013 0 4.3853 0 2.82506C 0 1.26482 1.26482 0 2.82506 0C 4.3853 0 5.65013 1.26482 5.65013 2.82506Z"/>
</defs>
</svg>
